<svg id="Capa_1" data-name="Capa 1" xmlns="http://www.w3.org/2000/svg" viewBox="0 0 29.15 16.38"><title>gastron_Mesa de trabajo 1</title><polygon points="9.12 0 7.58 7.02 4.67 7.02 6.24 0 3.68 0 0 16.38 2.56 16.38 4.1 9.37 7.02 9.37 5.47 16.38 8.1 16.38 11.72 0 9.12 0" style="fill:#fff"/><path d="M13.57,0h4c2.56,0,3.51,1.44,2.95,4l-1.82,8.31c-.56,2.63-2.14,4-4.7,4H10Zm2,2.35L13,14h1.44c.81,0,1.4-.42,1.65-1.58L18,3.93c.25-1.16-.14-1.58-.95-1.58Z" style="fill:#fff"/><polygon points="26.03 7.3 29.15 7.3 28.76 9.12 25.64 9.12 24.97 12.31 23.15 12.31 23.82 9.12 20.69 9.12 21.08 7.3 24.2 7.3 24.87 4.14 26.69 4.14 26.03 7.3" style="fill:#fff"/></svg>