<svg id="Capa_1" data-name="Capa 1" xmlns="http://www.w3.org/2000/svg" viewBox="0 0 21.64 21.64"><title>ic_1.6gzMesa de trabajo 1</title><path d="M21,9.54a.63.63,0,0,0,0-1.26H19.75V5.72H21a.63.63,0,0,0,0-1.26H19.68A3.14,3.14,0,0,0,17.19,2V.63a.63.63,0,1,0-1.26,0V1.89H13.36V.63a.63.63,0,0,0-1.26,0V1.89H9.54V.63a.63.63,0,1,0-1.26,0V1.89H5.72V.63a.63.63,0,1,0-1.26,0v1.3A3.14,3.14,0,0,0,2,4.42H.63a.63.63,0,1,0,0,1.26H1.89V8.24H.63a.63.63,0,1,0,0,1.26H1.89v2.6H.63a.63.63,0,1,0,0,1.26H1.89v2.56H.63a.63.63,0,1,0,0,1.26H2a3.14,3.14,0,0,0,2.49,2.49V21a.63.63,0,0,0,1.26,0V19.75H8.28V21a.63.63,0,0,0,1.26,0V19.75H12.1V21a.63.63,0,0,0,1.26,0V19.75h2.56V21a.63.63,0,0,0,1.26,0V19.68a3.15,3.15,0,0,0,2.49-2.49H21a.63.63,0,1,0,0-1.26H19.75V13.36H21a.63.63,0,0,0,0-1.26H19.75V9.54Zm-2.67,6.91a2.11,2.11,0,0,1-2.1,2.1h-11a2.11,2.11,0,0,1-2.11-2.1V5.4A2.11,2.11,0,0,1,5.19,3.3h11a2.11,2.11,0,0,1,2.1,2.1Z" style="fill:#fff"/><path d="M8.59,14.59h.95V16c0,.7-.35,1.09-1,1.09s-1-.39-1-1.09V13.71c0-.7.35-1.09,1-1.09s1,.39,1,1.09v.42H8.91v-.46c0-.32-.14-.42-.35-.42s-.35.1-.35.42V16c0,.32.14.42.35.42s.35-.11.35-.42v-.81H8.59Z" style="fill:#fff"/><polygon points="10.52 17.01 9.86 17.01 9.86 12.7 10.52 12.7 10.52 14.56 11.29 14.56 11.29 12.7 12 12.7 12 17.01 11.29 17.01 11.29 15.15 10.52 15.15 10.52 17.01" style="fill:#fff"/><polygon points="14.24 12.7 14.24 13.29 12.94 16.38 14.24 16.38 14.24 17.01 12.24 17.01 12.24 16.42 13.54 13.33 12.31 13.33 12.31 12.7 14.24 12.7" style="fill:#fff"/><path d="M6.72,6.57,7,6.46a1.65,1.65,0,0,0,.36-.22A2.17,2.17,0,0,0,7.67,6l.25-.32h.67v5.75h-1V7a1.32,1.32,0,0,1-.31.21,2,2,0,0,1-.55.16Z" style="fill:#fff"/><path d="M10,10.27h1v1.11H10Z" style="fill:#fff"/><path d="M13.52,7.16a4,4,0,0,0,0-.63q0-.2-.41-.2t-.4.16a.91.91,0,0,0-.08.41V8a1.63,1.63,0,0,1,.46-.27,1.29,1.29,0,0,1,.46-.09.94.94,0,0,1,.76.29,1.23,1.23,0,0,1,.25.82v1.34a1.72,1.72,0,0,1-.26.91q-.26.42-1.19.42a2.23,2.23,0,0,1-.53-.06,1.51,1.51,0,0,1-.51-.24.85.85,0,0,1-.34-.45,2,2,0,0,1-.08-.6V6.82a1.06,1.06,0,0,1,.44-1,1.92,1.92,0,0,1,1-.28,2.44,2.44,0,0,1,.45,0,1.84,1.84,0,0,1,.48.18.68.68,0,0,1,.36.44,3.87,3.87,0,0,1,.08.94ZM12.59,10a.86.86,0,0,0,.12.52.44.44,0,0,0,.36.14.43.43,0,0,0,.33-.12.58.58,0,0,0,.11-.4v-1a1.15,1.15,0,0,0-.07-.46q-.07-.16-.37-.16c-.21,0-.34.06-.39.17a.88.88,0,0,0-.09.4Z" style="fill:#fff"/></svg>