<svg id="Capa_1" data-name="Capa 1" xmlns="http://www.w3.org/2000/svg" viewBox="0 0 34.37 20.8"><title>ic_16_9Mesa de trabajo 1</title><path d="M7.82,6.38A1.65,1.65,0,0,0,9.65,5.05h1.12V15.5H9.12v-8H7.86V6.38Z" style="fill:#fff"/><path d="M20.2,9.82H18.63V8.24H20.2Zm0,5.72H18.63V14H20.2Z" style="fill:#fff"/><path d="M26.24,12.94c0,1.75-.81,2.74-2.52,2.74s-2.45-.95-2.45-2.63v-.28H22.8v.39c0,.74.32,1,.84,1s.91-.28.91-1.3V10.94a1.56,1.56,0,0,1-1.51.91c-1.23,0-1.82-.84-1.82-2.39V7.54a2.31,2.31,0,0,1,2.49-2.63A2.31,2.31,0,0,1,26.2,7.54v5.4ZM24.59,9.37V7.47c0-.74-.32-1-.84-1s-.84.28-.84,1V9.37c0,.74.32,1,.84,1s.84-.28.84-1" style="fill:#fff"/><path d="M17.28,12.94c0,1.75-.81,2.74-2.53,2.74s-2.46-.95-2.46-2.63v-.28h1.54v.39c0,.74.32,1,.84,1s.91-.28.91-1.3V10.94a1.56,1.56,0,0,1-1.51.91c-1.23,0-1.82-.84-1.82-2.39V7.54a2.31,2.31,0,0,1,2.49-2.63,2.31,2.31,0,0,1,2.49,2.63v5.4ZM15.63,9.37V7.47c0-.74-.32-1-.84-1s-.84.28-.84,1V9.37c0,.74.32,1,.84,1s.84-.28.84-1" style="fill:#fff"/><path d="M31.88,19.4h-25v1.4h25a2.5,2.5,0,0,0,2.49-2.49V6.7H33V18.34a1.11,1.11,0,0,1-1.09,1.05" style="fill:#fff"/><path d="M2.49,1.4h25V0h-25A2.5,2.5,0,0,0,0,2.49V14H1.4V2.46A1.09,1.09,0,0,1,2.49,1.4" style="fill:#fff"/><path d="M33.64,4.59A.67.67,0,0,1,33,3.93V1.37H30.41a.67.67,0,1,1,0-1.33h3.23A.67.67,0,0,1,34.3.7V3.93a.72.72,0,0,1-.67.67" style="fill:#fff"/><path d="M29.36,5.65a.73.73,0,0,1-.46-.18.66.66,0,0,1,0-.91L33.18.28a.66.66,0,0,1,.91,0,.66.66,0,0,1,0,.91L29.81,5.47a.74.74,0,0,1-.46.18" style="fill:#fff"/><path d="M4,20.8H.7A.66.66,0,0,1,0,20.13v-3.3a.67.67,0,1,1,1.33,0V19.5H4a.65.65,0,1,1,0,1.3" style="fill:#fff"/><path d="M.67,20.8a.74.74,0,0,1-.46-.17.66.66,0,0,1,0-.91l4.42-4.42a.64.64,0,0,1,.91.91L1.12,20.62a.67.67,0,0,1-.46.17" style="fill:#fff"/></svg>