<svg id="Capa_1" data-name="Capa 1" xmlns="http://www.w3.org/2000/svg" viewBox="0 0 32.87 23.92"><title>ic_2a16gbMesa de trabajo 1</title><path d="M7.16,18H8.42v1.82a1.26,1.26,0,0,1-1.37,1.44,1.28,1.28,0,0,1-1.37-1.44v-3A1.26,1.26,0,0,1,7.05,15.4a1.28,1.28,0,0,1,1.37,1.44v.56H7.58v-.63c0-.42-.18-.56-.46-.56s-.46.14-.46.56v3.12c0,.42.17.56.46.56s.46-.14.46-.56V18.84H7.16Z" style="fill:#fff"/><path d="M11.58,16.8V17c0,.6-.18,1-.6,1.16.49.17.67.63.67,1.23v.46a1.22,1.22,0,0,1-1.37,1.37H8.84V15.5h1.37c.95,0,1.37.42,1.37,1.3m-1.82-.49v1.54h.35c.35,0,.56-.14.56-.6v-.32c0-.42-.14-.6-.46-.6H9.75Zm0,2.35v1.79h.53c.32,0,.46-.14.46-.56V19.4c0-.53-.18-.7-.6-.7H9.75Z" style="fill:#fff"/><path d="M22.27,13h1.26V14.8a1.26,1.26,0,0,1-1.37,1.44A1.26,1.26,0,0,1,20.8,14.8v-3a1.26,1.26,0,0,1,1.37-1.44,1.26,1.26,0,0,1,1.37,1.44v.56h-.84v-.63c0-.42-.18-.56-.46-.56s-.46.14-.46.56v3.12c0,.42.18.56.46.56s.46-.14.46-.56V13.79h-.42Z" style="fill:#fff"/><path d="M26.66,11.75V12c0,.6-.18,1-.6,1.16.49.18.67.63.67,1.23v.46a1.22,1.22,0,0,1-1.37,1.37H23.92V10.42h1.37c1,0,1.37.42,1.37,1.33m-1.79-.53v1.54h.35c.35,0,.56-.14.56-.6v-.32c0-.42-.14-.59-.46-.59h-.46Zm0,2.35v1.79h.53c.32,0,.46-.14.46-.56v-.49c0-.53-.17-.7-.6-.7h-.39Z" style="fill:#fff"/><path d="M23.78,2.95c-.35,0-.56.18-.56.67v.74h-1V3.68A1.51,1.51,0,0,1,23.82,2a1.51,1.51,0,0,1,1.61,1.72c0,2.24-2.35,3-2.14,4.24h2v1H22.2V8.07c0-2,2.14-2.35,2.14-4.35,0-.63-.21-.77-.56-.77" style="fill:#fff"/><path d="M5.26,8.1a1.06,1.06,0,0,0,1.19-.88h.74V14.1H6.1V8.84H5.26Z" style="fill:#fff"/><path d="M8.38,8.94c0-1.16.53-1.79,1.65-1.79a1.51,1.51,0,0,1,1.61,1.72V9h-1V8.8c0-.49-.21-.67-.56-.67s-.6.18-.6.84v1.26a1,1,0,0,1,1-.6c.81,0,1.19.56,1.19,1.58v1.26A1.53,1.53,0,0,1,10,14.21a1.53,1.53,0,0,1-1.65-1.72Zm1.09,2.31v1.23c0,.49.21.67.56.67s.56-.17.56-.67V11.26c0-.49-.21-.67-.56-.67s-.56.18-.56.67" style="fill:#fff"/><path d="M30.34,0H17.22a2.5,2.5,0,0,0-2.49,2.49V5.26H2.49A2.5,2.5,0,0,0,0,7.75V21.43a2.5,2.5,0,0,0,2.49,2.49H15.61a2.5,2.5,0,0,0,2.49-2.49V18.69H30.38a2.5,2.5,0,0,0,2.49-2.49V2.52A2.56,2.56,0,0,0,30.34,0M16.91,17.85V21.4a1.32,1.32,0,0,1-1.3,1.3H2.46a1.32,1.32,0,0,1-1.3-1.3V7.72a1.32,1.32,0,0,1,1.3-1.3H15.57a1.32,1.32,0,0,1,1.3,1.3V17.85Zm14.73-1.68a1.32,1.32,0,0,1-1.3,1.3H18.06V7.75A2.49,2.49,0,0,0,15.89,5.3V2.52a1.32,1.32,0,0,1,1.3-1.3H30.31a1.32,1.32,0,0,1,1.3,1.3V16.17Z" style="fill:#fff"/></svg>