<svg id="Capa_1" data-name="Capa 1" xmlns="http://www.w3.org/2000/svg" viewBox="0 0 24.38 18.38"><title>ic_32gbMesa de trabajo 1</title><path d="M18.7,9.3h1.61v2.35a1.6,1.6,0,0,1-1.72,1.82,1.6,1.6,0,0,1-1.72-1.82V7.82A1.6,1.6,0,0,1,18.59,6a1.6,1.6,0,0,1,1.72,1.82v.7H19.22V7.75c0-.53-.25-.74-.6-.74s-.6.21-.6.74v4c0,.53.25.7.6.7s.6-.18.6-.7V10.38H18.7Z" style="fill:#fff"/><path d="M24.27,7.75V8a1.48,1.48,0,0,1-.74,1.47v0c.63.24.84.77.84,1.54v.6a1.55,1.55,0,0,1-1.75,1.72H20.8V6.07h1.72c1.23,0,1.75.56,1.75,1.68M22,7.12V9h.46c.42,0,.7-.18.7-.77V7.86c0-.53-.18-.74-.6-.74Zm0,3v2.24h.67c.39,0,.6-.18.6-.74V11c0-.67-.21-.88-.74-.88Z" style="fill:#fff"/><path d="M13.92,18.38H1.37A1.36,1.36,0,0,1,0,17.08V1.3A1.33,1.33,0,0,1,1.37,0h9.47a1.35,1.35,0,0,1,.95.39l3.09,3.47a1.34,1.34,0,0,1,.39.88V17.08a1.28,1.28,0,0,1-1.33,1.3M1.4.91A.4.4,0,0,0,1,1.26V17c0,.21.18.35.42.35H14a.39.39,0,0,0,.42-.35V4.7a.32.32,0,0,0-.11-.25L11.19,1a.68.68,0,0,0-.28-.11H1.4Z" style="fill:#fff"/><path d="M4.83,8.79H3.6V7.87a1.38,1.38,0,0,1,.15-.63,1.17,1.17,0,0,1,.41-.47,1.74,1.74,0,0,1,.62-.25,3.38,3.38,0,0,1,.69-.07,2,2,0,0,1,1.35.41A1.38,1.38,0,0,1,7.28,8v.87A1.16,1.16,0,0,1,7,9.65,1.45,1.45,0,0,1,6.2,10a1.68,1.68,0,0,1,.91.34,1.47,1.47,0,0,1,.21,1v1.13a1.5,1.5,0,0,1-.55,1.31,2.21,2.21,0,0,1-1.33.4A2.08,2.08,0,0,1,4,13.68a1.39,1.39,0,0,1-.5-1.1v-.91h1.3v.8A.67.67,0,0,0,5,13a.68.68,0,0,0,.48.15q.56,0,.56-.61V11.4q0-.63-.25-.78a2.15,2.15,0,0,0-1-.15V9.6a1.87,1.87,0,0,0,.95-.16Q6,9.27,6,8.69V8.13a1,1,0,0,0-.1-.48q-.1-.17-.46-.17t-.48.18A.71.71,0,0,0,4.83,8Z" style="fill:#fff"/><path d="M8.71,9.07H7.49V8.15a2.91,2.91,0,0,1,.08-.71A1.12,1.12,0,0,1,8,6.87a1.51,1.51,0,0,1,.66-.34,3.31,3.31,0,0,1,.68-.07,2.46,2.46,0,0,1,1.15.25,1,1,0,0,1,.56.56,5.65,5.65,0,0,1,.12.58,3.27,3.27,0,0,1,0,.44v.76A1.9,1.9,0,0,1,11,10a6.44,6.44,0,0,1-.94,1.1q-.75.75-1,1a1.11,1.11,0,0,0-.26.77h2.49V14H7.33a5.36,5.36,0,0,1,.25-1.74,4.33,4.33,0,0,1,1.1-1.56,11.31,11.31,0,0,0,1-1.1A1.13,1.13,0,0,0,9.89,9V8.1a.93.93,0,0,0-.11-.45.46.46,0,0,0-.44-.2.55.55,0,0,0-.5.2,1,1,0,0,0-.12.52Z" style="fill:#fff"/></svg>