<svg id="Capa_1" data-name="Capa 1" xmlns="http://www.w3.org/2000/svg" viewBox="0 0 22.24 24.45"><title>ic_5mp</title><path d="M18.2,0H4A4.06,4.06,0,0,0,0,4.31V21.15H1.44V5h19.5v16.2h1.3V4.35A4.07,4.07,0,0,0,18.2,0M7.58,3.72a1,1,0,0,1-1-1.05,1,1,0,1,1,2,0,1.07,1.07,0,0,1-1,1.05m5.33-.6H10c-.18,0-.32-.1-.32-.24A.28.28,0,0,1,10,2.63h2.88c.18,0,.32.1.32.25s-.14.24-.32.24" style="fill:#fff"/><path d="M10.44,12.84v.74c0,.56.25.77.63.77s.63-.21.63-.77V11.86c0-.56-.25-.77-.63-.77s-.63.21-.63.77v.25H9.28l.21-4.56h3.26V8.66H10.61l-.1,1.86A1.15,1.15,0,0,1,11.59,10c.91,0,1.37.63,1.37,1.79V13.5c0,1.26-.63,2-1.82,2s-1.82-.7-1.82-2v-.67Z" style="fill:#fff"/><path d="M6.18,17.76H7.66l.59,3.46.58-3.46h1.47V22.7h-.9l.08-4.28-.8,4.28H7.82L7,18.42l.07,4.28h-.9Z" style="fill:#fff"/><path d="M10.65,17.75h1.83q.55,0,.69.31a1.94,1.94,0,0,1,.14.82v.65a1.6,1.6,0,0,1-.17.89q-.17.24-.8.24h-.77V22.7h-.92Zm.92,2.19H12a.5.5,0,0,0,.34-.08.56.56,0,0,0,.08-.37V19a.87.87,0,0,0-.06-.4q-.06-.11-.34-.11h-.45Z" style="fill:#fff"/><path d="M13.38,17.76h1l.47,1.39.48-1.39h1l-1,2.34,1.09,2.6h-1L14.83,21l-.59,1.71h-1l1.09-2.63Z" style="fill:#fff"/></svg>