<svg id="Capa_1" data-name="Capa 1" xmlns="http://www.w3.org/2000/svg" viewBox="0 0 27.78 21.54"><title>ic_fingerMesa de trabajo 1</title><path d="M.53,4.84A.54.54,0,0,1,0,4.31V.53A.54.54,0,0,1,.53,0h3.4a.54.54,0,0,1,.53.53.54.54,0,0,1-.53.53H1.05V4.31a.54.54,0,0,1-.53.53" style="fill:#fff"/><path d="M16.66,4.53A.54.54,0,0,1,16.14,4V1.12H12.87A.54.54,0,0,1,12.35.6a.54.54,0,0,1,.52-.53h3.79a.54.54,0,0,1,.53.53V4a.54.54,0,0,1-.53.53" style="fill:#fff"/><path d="M4.31,18.8H.53A.54.54,0,0,1,0,18.27v-3.4a.54.54,0,0,1,.53-.53.54.54,0,0,1,.53.53v2.88H4.31a.54.54,0,0,1,.53.53.52.52,0,0,1-.53.53" style="fill:#fff"/><path d="M26.69,8.28a3.56,3.56,0,0,0-2.56-1.09,3.37,3.37,0,0,0-2.56,1.09,3.55,3.55,0,0,0-1.09,2.56v2.52H14.84a1.26,1.26,0,0,0-1.26,1.26v5.65a1.26,1.26,0,0,0,1.26,1.26H23a1.26,1.26,0,0,0,1.26-1.26V14.63A1.26,1.26,0,0,0,23,13.36h-.95V10.87a2.13,2.13,0,0,1,.6-1.47,2,2,0,0,1,1.47-.6,2.13,2.13,0,0,1,1.47.6,2,2,0,0,1,.6,1.47v2.6h1.58v-2.6a3.5,3.5,0,0,0-1.09-2.6m-6.7,11a.26.26,0,0,1-.25.32H18.49a.25.25,0,0,1-.25-.32l.46-1.65a1.11,1.11,0,0,1-.67-1,1.09,1.09,0,0,1,2.17,0,1,1,0,0,1-.67,1Z" style="fill:#fff"/><path d="M14,6.43a.41.41,0,0,1-.28-.11A6.44,6.44,0,0,0,5,6.32a.41.41,0,1,1-.56-.61,7.27,7.27,0,0,1,9.86,0,.41.41,0,0,1-.28.72" style="fill:#fff"/><path d="M14.68,9.12a.41.41,0,0,1-.34-.18,6,6,0,0,0-10,0,.41.41,0,1,1-.68-.46A6.8,6.8,0,0,1,15,8.48a.41.41,0,0,1-.11.57.41.41,0,0,1-.23.07" style="fill:#fff"/><path d="M8,17a.41.41,0,0,1-.29-.12c-.09-.09-2.2-2.24-2.2-4.32a3.85,3.85,0,0,1,3.79-3.9,3.85,3.85,0,0,1,3.79,3.9.41.41,0,1,1-.82,0,3,3,0,0,0-3-3.08,3,3,0,0,0-3,3.08c0,1.74,1.94,3.72,2,3.74A.41.41,0,0,1,8,17" style="fill:#fff"/><path d="M10.63,17c-1,0-3.28-1.88-3.51-4a2.66,2.66,0,0,1,.63-2,2.1,2.1,0,0,1,1.56-.72h0a2.19,2.19,0,0,1,1.55.65,2.3,2.3,0,0,1,.68,1.64v.27a1.15,1.15,0,1,0,2.3,0v-.09A4.73,4.73,0,0,0,9.63,7.84,4.4,4.4,0,0,0,6.3,9a4.8,4.8,0,0,0-.46,6.46A.41.41,0,1,1,5.2,16a5.63,5.63,0,0,1,.54-7.58A5.22,5.22,0,0,1,9.69,7a5.55,5.55,0,0,1,5,5.67v.09a2,2,0,1,1-3.94,0v-.27a1.48,1.48,0,0,0-.44-1.06,1.37,1.37,0,0,0-1-.41h0a1.28,1.28,0,0,0-1,.44,1.83,1.83,0,0,0-.43,1.39,4.44,4.44,0,0,0,2.69,3.24.41.41,0,1,1,0,.82" style="fill:#fff"/><path d="M12.16,16.15c-1.47,0-3.27-1.8-3.27-3.9a.41.41,0,1,1,.82,0c0,1.63,1.37,3.08,2.45,3.08a.41.41,0,1,1,0,.82" style="fill:#fff"/></svg>