<svg id="Capa_1" data-name="Capa 1" xmlns="http://www.w3.org/2000/svg" viewBox="0 0 13.08 21.29"><title>ic_screenMesa de trabajo 1</title><path d="M4.35,18.91H2.21a.48.48,0,0,1-.49-.49V16.28a.48.48,0,0,1,.49-.49.48.48,0,0,1,.49.49v1.65H4.35a.48.48,0,0,1,.49.49.5.5,0,0,1-.49.49" style="fill:#fff"/><path d="M2.21,18.91a.45.45,0,0,1-.35-.14.47.47,0,0,1,0-.7L4.7,15.22a.5.5,0,1,1,.7.7L2.56,18.77a.5.5,0,0,1-.35.14" style="fill:#fff"/><path d="M10.84,5.51A.48.48,0,0,1,10.35,5V3.44H8.73a.49.49,0,0,1,0-1H10.8a.48.48,0,0,1,.49.49V5a.45.45,0,0,1-.46.49" style="fill:#fff"/><path d="M8.07,6.21a.45.45,0,0,1-.35-.14.53.53,0,0,1,0-.7L10.49,2.6a.53.53,0,0,1,.7,0,.53.53,0,0,1,0,.7L8.42,6.07a.74.74,0,0,1-.35.14" style="fill:#fff"/><path d="M10.73,0H2.38A2.31,2.31,0,0,0,0,2.35V18.94a2.3,2.3,0,0,0,2.39,2.35h8.35a2.29,2.29,0,0,0,2.35-2.35V2.35A2.29,2.29,0,0,0,10.73,0M6.14.6H7.79A.17.17,0,0,1,8,.77a.17.17,0,0,1-.18.18H6.14A.17.17,0,0,1,6,.77.17.17,0,0,1,6.14.6M4.84.32A.46.46,0,0,1,5.3.77a.46.46,0,1,1-.91,0A.46.46,0,0,1,4.84.32m7.47,18.59a.87.87,0,0,1-.88.88H1.72a.87.87,0,0,1-.88-.88V2.35a.87.87,0,0,1,.88-.88h9.72a.87.87,0,0,1,.88.88Z" style="fill:#fff"/></svg>